<?xml version="1.0" encoding="UTF-8"?><svg id="Layer_2" xmlns="http://www.w3.org/2000/svg" xmlns:xlink="http://www.w3.org/1999/xlink" viewBox="0 0 735.86 245.36"><defs><style>
.cls-1{fill:url(#linear-gradient-2);}.cls-2{fill:url(#linear-gradient-6);}.cls-3{fill:url(#linear-gradient-11);}.cls-4{fill:url(#linear-gradient-10);}.cls-5{fill:url(#linear-gradient-5);}.cls-6{fill:none;}.cls-7{fill:url(#linear-gradient-7);}.cls-8{fill:url(#linear-gradient-9);}.cls-9{fill:url(#linear-gradient-3);}.cls-10{fill:url(#linear-gradient);}.cls-11{fill:url(#linear-gradient-4);}.cls-12{fill:url(#linear-gradient-8);}</style><linearGradient id="linear-gradient" x1="65.73" y1="234.95" x2="199.38" y2="234.95" gradientTransform="translate(0 357.63) scale(1 -1)" gradientUnits="userSpaceOnUse"><stop offset="0" stop-color="#f6eab5"/><stop offset=".2" stop-color="#e2c57b"/><stop offset=".33" stop-color="#fcf3ae"/><stop offset=".48" stop-color="#c2922e"/><stop offset=".59" stop-color="#ac7e2c"/><stop offset=".77" stop-color="#d39029"/><stop offset="1" stop-color="#fcfacb"/></linearGradient><linearGradient id="linear-gradient-2" x1="263.64" y1="223.57" x2="715.85" y2="223.57" xlink:href="#linear-gradient"/><linearGradient id="linear-gradient-3" x1="263.64" y1="215.47" x2="715.86" y2="215.47" xlink:href="#linear-gradient"/><linearGradient id="linear-gradient-4" x1="263.64" y1="225.34" x2="715.86" y2="225.34" xlink:href="#linear-gradient"/><linearGradient id="linear-gradient-5" x1="263.64" y1="224.95" x2="715.86" y2="224.95" xlink:href="#linear-gradient"/><linearGradient id="linear-gradient-6" x1="263.64" y1="215.47" x2="715.86" y2="215.47" xlink:href="#linear-gradient"/><linearGradient id="linear-gradient-7" x1="263.64" y1="215.84" x2="715.86" y2="215.84" xlink:href="#linear-gradient"/><linearGradient id="linear-gradient-8" x1="263.64" y1="215.5" x2="715.86" y2="215.5" xlink:href="#linear-gradient"/><linearGradient id="linear-gradient-9" x1="263.64" y1="215.11" x2="715.86" y2="215.11" xlink:href="#linear-gradient"/><linearGradient id="linear-gradient-10" x1="263.64" y1="224.4" x2="715.86" y2="224.4" xlink:href="#linear-gradient"/><linearGradient id="linear-gradient-11" x1="19.88" y1="122.68" x2="245.24" y2="122.68" gradientTransform="matrix(1, 0, 0, 1, 0, 0)" xlink:href="#linear-gradient"/></defs><g id="Layer_2-2"><g><g id="Capa_2"><g id="Capa_5"><path class="cls-10" d="M117.22,119.1l-.8-1.11,29.42-14.02c1.02,1.13,1.97,2.32,2.85,3.56l37.65-13.35h0c7.82-2.46,12.36-10.61,10.32-18.56h0c-.58-2.4-1.29-4.81-2.09-7.12l-76.1,42.41,16.11-15.84c.98,.49,1.87,1.02,2.8,1.6,0,0,42.32-33.91,43.17-34.85,4.45-4.91,5.11-12.18,1.6-17.8-.53-.71-1.02-1.42-1.6-2.14-1.16-1.56-2.49-3.16-3.83-4.45L111.84,111.49l-2.18-2.85c-1.07-1.2-2.54-1.96-4.14-2.14h-.58l-3.12-4.45v-.27c0-.27,.08-.53,.22-.76,.4-.58,.7-1.23,.89-1.91h0c.07-.44,.07-.89,0-1.34,.05-.94-.13-1.87-.53-2.71-.22-.4-9.75-13.93-9.75-13.93v2.8l5.12,6.99c.09,.1,.09,.25,0,.36h0l-8.5-11.44v3.74l5.3,7.57v.36h0l-8.9-12.51v3.34l6.32,9.12c.1,.07,.12,.21,.04,.31-.01,.02-.03,.03-.04,.04h-.27l-10.1-14.06v4.45l6.54,9.3c.09,.1,.09,.25,0,.36h-.18l-13.35-18.6-8.01,25.5-.62,2.05c-.18,.79-.27,1.59-.27,2.4,.09,3.48,1.72,6.74,4.45,8.9,.35,.2,.68,.44,.98,.71,1.27,1.12,1.97,2.76,1.91,4.45,0,.56-.08,1.11-.22,1.65h0c-.02,.13-.02,.27,0,.4,0,.98,1.34,1.78,1.78,1.11s.8-1.11,.93-1.29c.78-.96,1.62-1.88,2.49-2.76,.65-.63,1.33-1.22,2.05-1.78v.27c-2.42,2.31-4.3,5.14-5.47,8.28-.02,.46-.02,.92,0,1.38,0,.45-.36,4.09-.36,5.21-.09,1.23-.09,2.46,0,3.69,.03,.64,.1,1.28,.22,1.91h.13s.53,3.12,.98,4.45c0,.58,1.34,4.01,1.82,5.16,0,.36,1.38,2.89,1.91,3.74,4.27,7.43,10.8,13.29,18.65,16.73l1.74,.76c1.45,.55,2.94,.98,4.45,1.29,1.25,.27,2.45,.58,3.65,.93,10.96,3.2,20.96,9.05,29.11,17.05h0l1.69,1.74c4.61,3.93,11.01,4.99,16.64,2.76,.91-.36,1.79-.81,2.63-1.34,.33-.31,.83-.31,1.16,0,.11,.21,.11,.46,0,.67-.32,1.04-.49,2.12-.49,3.2,.01,2.92,1.22,5.7,3.34,7.7,3.33,3.42,7.39,6.03,11.88,7.65h.36c.56,.11,1.13,.11,1.69,0,2.16-.18,3.76-2.07,3.59-4.22,0-.08-.01-.15-.03-.23-.1-.94-.54-1.81-1.25-2.45h0l-.4-.31h0l-.31-.27c-5.96-4.54-9.99-11.14-11.3-18.51-.17-.99-.28-1.98-.31-2.98h0c-.05-.65-.05-1.31,0-1.96v-.93c-.15-2.29-.52-4.55-1.11-6.76-.93-3.28-2.36-6.4-4.23-9.26l-1.29-1.11c-1.5-1.9-3.42-3.42-5.61-4.45l-13.35-6.41h0l29.51,10.19h0c.89,.37,1.84,.57,2.8,.58h0c2.12,.01,4.14-.88,5.56-2.45,.15-.15,.28-.32,.4-.49l.27-.31c.71-1,1.14-2.16,1.25-3.38v-.71c0-2.36-1.13-4.57-3.03-5.96-.41-.28-.84-.52-1.29-.71l-34.31-11.53,28.48,8.06h0l4.18,1.11c.53-1.21,1.92-1.8,3.16-1.34,.9,.35,1.5,1.21,1.51,2.18,.05,.16,.05,.33,0,.49l3.56,.98c.32-.74,.49-1.55,.49-2.36-.02-2.62-1.7-4.95-4.18-5.79l-1.6-.4-53.85-12.46v-.22l32-2.98c.31,1.32,.53,2.66,.67,4.01h29.19c6.89-.9,12.4-6.16,13.62-13,.31-2.09,.58-4.45,.76-6.41l-82.15,14.02Zm56.12,30.13c.96-.01,1.83,.55,2.23,1.42,.16,.28,.24,.61,.22,.93-.07,1.31-1.18,2.32-2.49,2.27-.96-.03-1.81-.62-2.18-1.51-.05-.25-.05-.51,0-.76,.02-1.24,.98-2.27,2.23-2.36Z"/></g></g><path class="cls-1" d="M295.58,167.53c-6.01,.17-11.95-1.37-17.12-4.45-4.73-2.99-8.53-7.24-10.99-12.27-2.6-5.24-3.91-11.02-3.83-16.87-.07-5.86,1.28-11.64,3.94-16.87,2.58-4.95,6.44-9.12,11.19-12.06,11.01-6.18,24.51-5.9,35.27,.72,5.01,3.25,8.97,7.89,11.4,13.34h-8.08c-1.95-3.45-4.79-6.31-8.23-8.28-3.91-2.14-8.32-3.2-12.78-3.07-4.77-.05-9.47,1.25-13.54,3.73-3.73,2.25-6.74,5.51-8.69,9.4-2.07,4.12-3.1,8.68-3.02,13.29-.07,4.58,.94,9.12,2.96,13.24,1.92,3.94,4.96,7.23,8.74,9.46,4.09,2.44,8.79,3.66,13.54,3.53,3.88,0,7.7-.87,11.19-2.56,3.46-1.67,6.42-4.23,8.59-7.41,2.25-3.44,3.39-7.49,3.27-11.6h-24.02v-6.7h30.67v34.65h-6.85v-11.5c-1.41,2.21-3.13,4.21-5.11,5.93-2.31,1.99-4.96,3.55-7.82,4.6-3.42,1.24-7.04,1.83-10.68,1.74Z"/><path class="cls-9" d="M358.8,167.53c-4.56,.11-9.05-1.06-12.98-3.37-3.63-2.21-6.57-5.4-8.48-9.2-2-3.98-3.02-8.38-2.96-12.83-.07-4.45,.95-8.86,2.96-12.83,1.93-3.77,4.87-6.94,8.48-9.15,8.11-4.49,17.96-4.49,26.07,0,3.6,2.24,6.51,5.42,8.43,9.2,1.98,3.98,2.97,8.38,2.91,12.83,.05,4.45-.95,8.84-2.91,12.83-1.9,3.79-4.82,6.97-8.43,9.2-3.97,2.31-8.5,3.46-13.08,3.32Zm0-6.7c3.29,.13,6.54-.76,9.3-2.56,2.55-1.68,4.55-4.05,5.78-6.85,2.65-5.94,2.65-12.72,0-18.66-1.24-2.77-3.24-5.13-5.78-6.8-2.77-1.77-6.01-2.66-9.3-2.56-6.46-.24-12.42,3.46-15.08,9.35-2.59,5.95-2.59,12.71,0,18.66,2.57,6,8.55,9.82,15.08,9.61v-.2Z"/><path class="cls-11" d="M393,166.76V97.82h7.36v68.95h-7.36Z"/><path class="cls-5" d="M433.99,167.53c-8.83,.28-17.01-4.64-20.9-12.57-1.96-3.99-2.96-8.38-2.91-12.83-.06-4.45,.94-8.84,2.91-12.83,1.9-3.74,4.78-6.9,8.33-9.15,3.78-2.31,8.15-3.48,12.57-3.37,3.55-.07,7.06,.74,10.22,2.35,2.87,1.43,5.36,3.54,7.26,6.13v-27.45h7.41v68.95h-7.41v-7.87c-1.86,2.63-4.31,4.78-7.16,6.29-3.19,1.63-6.74,2.44-10.32,2.35Zm.97-6.49c3.31,.12,6.57-.77,9.35-2.56,2.52-1.69,4.5-4.07,5.72-6.85,2.65-5.94,2.65-12.72,0-18.66-1.23-2.76-3.22-5.11-5.72-6.8-2.79-1.76-6.05-2.65-9.35-2.56-3.3-.07-6.55,.82-9.35,2.56-2.58,1.67-4.65,4.02-5.98,6.8-2.79,5.91-2.79,12.75,0,18.66,2.75,5.93,8.8,9.64,15.33,9.4Z"/><path class="cls-2" d="M493.68,167.53c-4.59,.1-9.12-1.07-13.08-3.37-3.68-2.22-6.68-5.4-8.69-9.2-2.06-3.96-3.11-8.37-3.07-12.83-.01-4.46,1.04-8.86,3.07-12.83,1.88-3.75,4.74-6.91,8.28-9.15,3.94-2.32,8.46-3.49,13.03-3.37,4.58-.13,9.09,1.04,13.03,3.37,3.6,2.24,6.51,5.42,8.43,9.2,2.07,3.94,3.18,8.32,3.22,12.78v2.96h-41.55c.37,2.81,1.33,5.51,2.81,7.92,1.47,2.39,3.53,4.36,5.98,5.72,2.64,1.46,5.62,2.18,8.64,2.1,3.09,.1,6.15-.7,8.79-2.3,2.3-1.49,4.2-3.53,5.52-5.93h8.08c-1.66,4.28-4.47,8.01-8.13,10.78-4.21,2.91-9.25,4.36-14.36,4.14Zm-17.22-29.34h33.48c-.49-3.98-2.29-7.68-5.11-10.53-6.55-5.66-16.25-5.66-22.79,0-2.95,2.81-4.9,6.51-5.57,10.53Z"/><path class="cls-7" d="M526.7,166.76v-49.27h7.41v7.77c1.76-2.4,3.97-4.45,6.49-6.03,2.98-1.75,6.41-2.6,9.86-2.45,3.35,0,6.65,.83,9.61,2.4,3.05,1.67,5.56,4.17,7.26,7.21,1.98,3.59,2.96,7.65,2.81,11.76v28.67h-7.36v-28.52c.12-3.98-1.31-7.84-3.99-10.78-2.57-2.72-6.18-4.21-9.92-4.09-2.63-.04-5.22,.61-7.51,1.89-2.13,1.21-3.9,2.98-5.11,5.11-1.35,2.38-2.04,5.08-1.99,7.82v28.37l-7.56,.15Z"/><path class="cls-12" d="M603.67,167.53c-4.51,.12-8.96-1.05-12.83-3.37-3.61-2.23-6.53-5.41-8.43-9.2-2.07-3.96-3.16-8.36-3.17-12.83-.05-4.46,.98-8.86,3.02-12.83,1.92-3.78,4.84-6.96,8.43-9.2,3.87-2.32,8.32-3.49,12.83-3.37,5.33-.16,10.57,1.42,14.92,4.5,3.98,2.9,6.89,7.03,8.28,11.76h-7.97c-1.08-2.77-2.95-5.17-5.37-6.9-2.6-1.83-5.72-2.76-8.89-2.66-6.6-.18-12.71,3.46-15.69,9.35-2.86,5.89-2.86,12.77,0,18.66,1.41,2.81,3.57,5.18,6.24,6.85,2.9,1.9,6.3,2.86,9.76,2.76,6.31,.19,12.04-3.65,14.26-9.56h7.97c-1.37,4.73-4.29,8.87-8.28,11.76-4.42,3.04-9.72,4.55-15.08,4.29Z"/><path class="cls-8" d="M655.29,167.53c-3.36,.03-6.66-.8-9.61-2.4-3.07-1.65-5.62-4.13-7.36-7.16-1.98-3.61-2.95-7.69-2.81-11.81v-28.67h7.41v28.47c-.2,3.97,1.2,7.85,3.88,10.78,2.56,2.73,6.18,4.22,9.92,4.09,5.25,.1,10.16-2.63,12.83-7.16,1.37-2.38,2.07-5.08,2.04-7.82v-28.37h7.36v49.27h-7.36v-7.67c-1.8,2.38-4.02,4.4-6.54,5.98-2.95,1.74-6.34,2.59-9.76,2.45Z"/><path class="cls-4" d="M697.15,166.76v-42.78h-10.22v-6.49h10.22v-17.79h7.41v17.63h11.3v6.49h-11.3v42.78l-7.41,.15Z"/><path class="cls-3" d="M132.56,10c-62.23,0-112.68,50.45-112.68,112.68s50.45,112.68,112.68,112.68,112.68-50.45,112.68-112.68S194.79,10,132.56,10Zm0,213.89c-55.9,0-101.21-45.31-101.21-101.21S76.66,21.47,132.56,21.47s101.21,45.31,101.21,101.21-45.31,101.21-101.21,101.21Z"/></g><rect class="cls-6" width="735.86" height="245.36"/></g></svg>